/* XPM */
static char *distributorlogoxubuntu_103981_png[] = {
/* columns rows colors chars-per-pixel */
"20 20 99 2 ",
"   c None",
".  c #415AA6",
"X  c #415BA6",
"o  c #425BA6",
"O  c #425CA6",
"+  c #435CA6",
"@  c #435CA7",
"#  c #435DA7",
"$  c #445DA7",
"%  c #455EA7",
"&  c #455EA8",
"*  c #465FA8",
"=  c #475FA8",
"-  c #4760A8",
";  c #4860A9",
":  c #4861A9",
">  c #4962A9",
",  c #4A62AA",
"<  c #4B63AA",
"1  c #4C64AA",
"2  c #4D65AB",
"3  c #576DB0",
"4  c #576EB0",
"5  c #586EB0",
"6  c #596FB0",
"7  c #5B71B2",
"8  c #5D72B2",
"9  c #5E73B3",
"0  c #6075B4",
"q  c #6176B4",
"w  c #667BB7",
"e  c #687CB7",
"r  c #697DB8",
"t  c #6A7DB8",
"y  c #6A7EB8",
"u  c #6C80B9",
"i  c #6D81BA",
"p  c #7184BC",
"a  c #7688BE",
"s  c #788ABF",
"d  c #7C8DC0",
"f  c #7E8FC1",
"g  c #7F8FC2",
"h  c #7F90C2",
"j  c #8595C4",
"k  c #8797C5",
"l  c #8897C6",
"z  c #8998C6",
"x  c #93A1CB",
"c  c #95A3CC",
"v  c #96A3CC",
"b  c #96A4CC",
"n  c #99A6CE",
"m  c #9BA8CE",
"M  c #9DAAD0",
"N  c #9EAAD0",
"B  c #9FACD0",
"V  c #A2AED1",
"C  c #A3AFD2",
"Z  c #AAB5D5",
"A  c #ACB7D6",
"S  c #B3BDD9",
"D  c #B4BEDA",
"F  c #B7C0DB",
"G  c #BAC3DD",
"H  c #BEC6DE",
"J  c #BFC7DF",
"K  c #C2C9E0",
"L  c #C5CCE1",
"P  c #C5CCE2",
"I  c #C7CEE2",
"U  c #CDD3E5",
"Y  c #D0D5E6",
"T  c #D1D6E7",
"R  c #D4D9E8",
"E  c #E0E3EE",
"W  c #E2E5EE",
"Q  c #E9EBF2",
"!  c #ECEEF3",
"~  c #EDEFF4",
"^  c #EFF0F4",
"/  c #F0F1F5",
"(  c #F0F2F5",
")  c #F2F3F6",
"_  c #F3F4F6",
"`  c #F4F5F7",
"'  c #F5F5F7",
"]  c #F6F6F7",
"[  c #F8F8F8",
"{  c #F9F9F9",
"}  c #FAF9F9",
"|  c #FAFAF9",
" . c gray98",
".. c #FBFAFA",
"X. c #FBFBFA",
"o. c #FCFBFA",
"O. c #FCFCFA",
"+. c #FCFCFB",
"@. c #FDFDFB",
/* pixels */
"                                        ",
"      $ $ $ $ $ $ $ $ $ $ $ $ $ $       ",
"    $ $ $ $ $ $ $ $ $ $ $ @ $ $ $ $     ",
"  $ $ $ $ $ $ @ o @ $ $ $ 6 = @ = $ $   ",
"  $ $ $ $ o o 3 z 6 @ $ 1 v , i i @ $   ",
"  $ $ $ , j q v O.B @ @ 3 V 6 S 8 @ $   ",
"  $ $ o t / P V O.J = o w n x N @ $ $   ",
"  $ $ o e ~ _ G ] Y 8 , q d Z 7 @ $ $   ",
"  $ $ $ 3 E [ / [ ] W U A l i o $ $ $   ",
"  $ $ @ p / [ [ [ [ [ o.o.] R h $ $ $   ",
"  $ $ @ m [ [ [ [ [ [ [ [ [ o.Q t o $   ",
"  $ $ $ F O.[ [ [ [ [ [ [ [ [ ] s o $   ",
"  $ $ - K O.[ [ [ [ [ [ [ o.^ N , $ $   ",
"  $ $ $ D O.[ [ [ [ [ o.] P a = @ $ $   ",
"  $ $ o d / O.[ O.[ ! K d 1 o $ $ $ $   ",
"  $ $ $ , j P Y J b t , o @ $ $ $ $ $   ",
"  $ $ $ $ o , 1 = o o $ $ $ $ $ $ $ $   ",
"    $ $ $ $ $ @ $ $ $ $ $ $ $ $ $ $     ",
"      $ $ $ $ $ $ $ $ $ $ $ $ $ $       ",
"                                        "
};
