/* XPM */
static char *cib_arch_linux_png[] = {
/* columns rows colors chars-per-pixel */
"20 20 2 1 ",
"  c None",
". c black",
/* pixels */
"                    ",
"                    ",
"                    ",
"         .          ",
"        ...         ",
"        ...         ",
"        ....        ",
"       .....        ",
"       ......       ",
"      .......       ",
"      ........      ",
"     .........      ",
"     ...   ....     ",
"    ....   ....     ",
"   .....   ....     ",
"   .....    ....    ",
"  ...         ...   ",
"  .             .   ",
"                    ",
"                    "
};
