/* XPM */
static char *_4px_Archlinux_icon_crystal_64_svg_png[] = {
/* columns rows colors chars-per-pixel */
"20 20 49 1 ",
"  c None",
". c #1792D0",
"X c #1793D0",
"o c #1792D1",
"O c #1693D1",
"+ c #1793D1",
"@ c #1893D1",
"# c #1993D1",
"$ c #1894D1",
"% c #1994D1",
"& c #1A95D2",
"* c #1B95D2",
"= c #1E96D2",
"- c #1F96D2",
"; c #2097D3",
": c #2198D3",
"> c #2398D3",
", c #2399D3",
"< c #2499D3",
"1 c #269AD4",
"2 c #279AD4",
"3 c #289BD4",
"4 c #2A9CD5",
"5 c #2B9CD5",
"6 c #2C9DD5",
"7 c #2D9DD5",
"8 c #2E9DD5",
"9 c #2F9ED6",
"0 c #309ED6",
"q c #32A0D6",
"w c #33A0D6",
"e c #34A0D7",
"r c #37A2D7",
"t c #38A2D7",
"y c #38A3D7",
"u c #3AA4D8",
"i c #3BA4D8",
"p c #3DA5D8",
"a c #40A6D9",
"s c #41A6D9",
"d c #41A7D9",
"f c #45A8DA",
"g c #46A9DA",
"h c #4AABDB",
"j c #4EADDC",
"k c #4FADDC",
"l c #50AEDC",
"z c #52AEDC",
"x c #57B1DE",
/* pixels */
"                    ",
"         #<         ",
"         +>         ",
"        =*=         ",
"        1>;9        ",
"        0919        ",
"        rr99u       ",
"       gdutqr       ",
"      lkhgdutd      ",
"      xldq535q      ",
"     kp1*++++*>     ",
"     1*+++++++#     ",
"    ++++   +++++    ",
"   +++++    ++++    ",
"   +++++    +++++   ",
"  ++++++    +++++   ",
"  +++++      +++++  ",
" +++           ++++ ",
" +               ++ ",
"                    "
};
