/* XPM */
static char *distributorlogoarchlinux_103805_png[] = {
/* columns rows colors chars-per-pixel */
"20 20 86 1 ",
"  c None",
". c #3293C0",
"X c #3393C0",
"o c #3394C0",
"O c #3494C0",
"+ c #3494C1",
"@ c #3594C1",
"# c #3595C1",
"$ c #3695C1",
"% c #3795C1",
"& c #3796C1",
"* c #3997C2",
"= c #3D99C3",
"- c #409AC4",
"; c #429BC4",
": c #439CC5",
"> c #459DC5",
", c #469DC6",
"< c #4A9FC7",
"1 c #4BA0C7",
"2 c #4CA0C7",
"3 c #50A2C8",
"4 c #51A3C9",
"5 c #53A4C9",
"6 c #56A5CA",
"7 c #57A6CA",
"8 c #61ABCD",
"9 c #63ACCE",
"0 c #65ADCF",
"q c #67AECF",
"w c #68AFCF",
"e c #6AB0D0",
"r c #6BB0D0",
"t c #6FB2D1",
"y c #75B5D3",
"u c #79B7D4",
"i c #7BB8D5",
"p c #83BCD7",
"a c #84BDD7",
"s c #88BFD9",
"d c #8CC1DA",
"f c #8DC2DA",
"g c #8EC2DA",
"h c #92C4DB",
"j c #93C5DC",
"k c #94C5DC",
"l c #95C6DC",
"z c #96C6DD",
"x c #9AC9DE",
"c c #A1CCE0",
"v c #A8CFE2",
"b c #A8D0E2",
"n c #ADD2E3",
"m c #B3D5E5",
"M c #B7D7E6",
"N c #BCDAE8",
"B c #C4DEEA",
"V c #CBE1EC",
"C c #CCE2EC",
"Z c #D1E4ED",
"A c #D3E5EE",
"S c #D4E6EE",
"D c #D5E6EF",
"F c #D8E8F0",
"G c #D9E9F0",
"H c #DDEBF1",
"J c #E1EDF2",
"K c #E4EEF3",
"L c #E6EFF4",
"P c #E8F0F4",
"I c #E9F1F4",
"U c #EDF3F6",
"Y c #EFF4F6",
"T c #F1F5F7",
"R c #F4F7F8",
"E c #F6F8F8",
"W c #F7F8F8",
"Q c #F8F9F9",
"! c #F9F9F9",
"~ c #FAF9F9",
"^ c #FAFAF9",
"/ c #FBFAFA",
"( c #FCFAFA",
") c #FCFBFA",
"_ c #FDFBFA",
"` c #FFFCFB",
/* pixels */
"                    ",
"   $$$$$$$$$$$$$$   ",
"  $$$$$$$$$$$$$$$$  ",
" $$$$$$$$36$$$$$$$$ ",
" $$$$$$$$zv$$$$$$$$ ",
" $$$$$$$,SK5$$$$$$$ ",
" $$$$$$XuE/j$$$$$$$ ",
" $$$$$$=zI/F1$$$$$$ ",
" $$$$$oyLJE/f$$$$$$ ",
" $$$$$-B)///F2$$$$$ ",
" $$$$ouR/EE//h$$$$$ ",
" $$$$:V)YfpI)H3$$$$ ",
" $$$$aE)N*$b)/x$$$$ ",
" $$$<S)`c$Xs)TM,$$$ ",
" $$$z)TZi$$eCYUf$$$ ",
" $$6Zme-$$$$-0nF9$$ ",
" $$w0*o$$$$$$o$8t$$ ",
"  $$$$$$$$$$$$$$$$  ",
"   $$$$$$$$$$$$$$   ",
"                    "
};
