/* XPM */
static char *heart[] = {
/* columns rows colors chars-per-pixel */
"20 20 102 2 ",
"   c #2B3B44",
".  c #2E3B44",
"X  c #323B45",
"o  c #373B45",
"O  c #3B3B46",
"+  c #3C3B46",
"@  c #413B46",
"#  c #453B47",
"$  c #423C47",
"%  c #453C47",
"&  c #493B47",
"*  c #4E3B47",
"=  c #4D3C47",
"-  c #543B48",
";  c #523C48",
":  c #5A3C48",
">  c #5E3C49",
",  c #633C49",
"<  c #643C49",
"1  c #6C3C4A",
"2  c #713C4A",
"3  c #763C4B",
"4  c #823C4C",
"5  c #883C4C",
"6  c #8D3C4D",
"7  c #903D4D",
"8  c #953D4D",
"9  c #9F3C4E",
"0  c #A33D4F",
"q  c #A63D4F",
"w  c #A83D4F",
"e  c #AB3D4F",
"r  c #B13C4F",
"t  c #BB3B4F",
"y  c #B23D50",
"u  c #B73E50",
"i  c #B83E51",
"p  c #BD3D50",
"a  c #C03C4F",
"s  c #D3394E",
"d  c #D4394F",
"f  c #DB394F",
"g  c #DE394F",
"h  c #C13E51",
"j  c #C73E52",
"k  c #C83C50",
"l  c #CC3E52",
"z  c #D03E52",
"x  c #D53E53",
"c  c #DC3B51",
"v  c #DB3E53",
"b  c #DC3E53",
"n  c #DF3F55",
"m  c #E9374E",
"M  c #E43D53",
"N  c #E13E54",
"B  c #E43F55",
"V  c #E83950",
"C  c #E93E54",
"Z  c #E84157",
"A  c #E34359",
"S  c #E54258",
"D  c #E4475C",
"F  c #E94359",
"G  c #E74B5F",
"H  c #E94A5F",
"J  c #E74F64",
"K  c #EA4B60",
"L  c #E94E63",
"P  c #EA5D70",
"I  c #EB6072",
"U  c #E96274",
"Y  c #EA6476",
"T  c #EC6779",
"R  c #EB7383",
"E  c #EC7181",
"W  c #EC7887",
"Q  c #ED7B8A",
"!  c #EE7D8C",
"~  c #EE8593",
"^  c #EF8E9B",
"/  c #F08F9C",
"(  c #F0929E",
")  c #F19FAA",
"_  c #F2A0AB",
"`  c #F3A8B2",
"'  c #F4AFB8",
"]  c #F4B3BC",
"[  c #F6BCC4",
"{  c #F7C6CD",
"}  c #F8CFD5",
"|  c #F9D6DA",
" . c #FADEE2",
".. c #FCE6E9",
"X. c #FCE9EB",
"o. c #FCEBED",
"O. c #FDEEF0",
"+. c #FDF2F3",
"@. c #FDF2F4",
"#. c #FEF5F7",
"$. c #FEF8F8",
"%. c #FFFFFF",
/* pixels */
"%.%.%.%.%.%.%.O.[ R J Y ` ..%.%.%.%.%.%.",
"%.%.%.%.%.#.{ ^ Y L F H P ! ' o.%.%.%.%.",
"%.%.%.#.} ) E K g a 9 r s Z I / [ X.%.%.",
"%.$. .] ! D c k q 3 & , 8 p x B T _ | +.",
"%.| ~ D n x y 3 $ o o o O > 9 l n A R [ ",
"%.( G v u 3 * + o o o o o O # < 0 z G I ",
"%.Q V p : @ # 3 0 8 1 6 q 5 & + = 9 C S ",
"%.W m r X X 3 p N v i z N k 5 +   5 C M ",
"%.Q m y o o 0 N B B B B B N p # . 6 C B ",
"%.Q m y o o q N B B B B B N h # . 6 C B ",
"%.Q m y o o 4 j B B B B B z 8 @ . 6 C B ",
"%.Q m y o o & 7 x B B B b q ; O . 6 C B ",
"%.W m w X X X - 8 z N b w , o X   5 C M ",
"%.Q V p : @ o X * 8 l w , X X O = 0 C S ",
"%.( G v i 3 * O o # 7 : o O # < 0 z G U ",
"%.| ~ D n x y 3 $ o @ O + > 9 l n A R [ ",
"%.$. .] ! D c j 0 2 % , 8 p x B T _ | @.",
"%.%.%.#.} ) E K f t 9 r d Z I / [ X.%.%.",
"%.%.%.%.%.#.{ ^ Y L F H P ! ' o.%.%.%.%.",
"%.%.%.%.%.%.%.O.[ R J Y ` ..%.%.%.%.%.%."
};
