/* XPM */
static char *key[] = {
/* columns rows colors chars-per-pixel */
"20 20 67 1 ",
"  c #476FDD",
". c #4B72DD",
"X c #4D73DE",
"o c #4D74DE",
"O c #5076DE",
"+ c #5378DF",
"@ c #567ADF",
"# c #577BE0",
"$ c #5B7EE0",
"% c #5C7FE0",
"& c #5F81E1",
"* c #6082E1",
"= c #6284E2",
"- c #6586E2",
"; c #6788E3",
": c #6A8BE3",
"> c #6C8CE3",
", c #6C8CE4",
"< c #708FE4",
"1 c #7190E5",
"2 c #7694E5",
"3 c #7B98E6",
"4 c #7C98E6",
"5 c #809BE7",
"6 c #829DE7",
"7 c #839EE7",
"8 c #839EE8",
"9 c #849EE8",
"0 c #88A1E9",
"q c #8BA4E9",
"w c #8DA6EA",
"e c #93AAEA",
"r c #95ACEB",
"t c #98AEEC",
"y c #9AB0EC",
"u c #9CB1EC",
"i c #A3B7EE",
"p c #A5B8EE",
"a c #A8BBEF",
"s c #A9BCEF",
"d c #ACBEEF",
"f c #ADBFF0",
"g c #AEC0F0",
"h c #B3C3F0",
"j c #B3C3F1",
"k c #B4C4F1",
"l c #BAC9F2",
"z c #BFCDF3",
"x c #C0CEF3",
"c c #C3D0F4",
"v c #C5D1F4",
"b c #C9D4F5",
"n c #CFDAF6",
"m c #D1DBF6",
"M c #D2DCF7",
"N c #D4DDF7",
"B c #D8E0F8",
"V c #DCE3F8",
"C c #DCE4F9",
"Z c #E1E7F9",
"A c #E2E8F9",
"S c #E4EAFA",
"D c #E8EDFB",
"F c #ECF0FB",
"G c #ECF0FC",
"H c #FAFBFE",
"J c white",
/* pixels */
"JJJJHZg8-@@-8gAHJJJJ",
"JJJGh8>&@OO@&>9kGJJJ",
"JJZp,o.oooooo.o,pAJJ",
"JFp&ooooXoXXoooo*pGJ",
"Hh>oooO@*;-$+oooo,kH",
"Z6oooo#0vSSf,ooooo8A",
"g>.oo@ichaNAtXooo.>h",
"6&oo@9cf1-rDdXoooo&8",
"-@oX&zk2 +6MiXoooo@-",
"#OoX=Vh<+-gx0XooooO$",
"$OoX*NCpqhDk<oOooo+$",
"-@oo$yBSnlpbp3q$oo@-",
"6&ooO-wiy6-yzxs:+X&8",
"g>.oooX..Xo$uNz4$.,h",
"Z6oooooooooo%em5@o9A",
"Hk,oooooooooO&1;+,kH",
"JGp&oooooooooO++=pGJ",
"JJAp,o.oooooo.o,pAJJ",
"JJJFk9>&@OO@&,9kGJJJ",
"JJJJHAh8-##-8hAHJJJJ"
};
