/* XPM */
static char *layout_treetab[] = {
/* columns rows colors chars-per-pixel */
"32 32 2 1 ",
"  c None",
". c white",
/* pixels */
"                                ",
"  ....   ...................... ",
"  ....   ...................... ",
"  ....   ...................... ",
"  ....   ...................... ",
"  ....   ...................... ",
"  ....   ...................... ",
"         ...................... ",
"         ...................... ",
"  ....   ...................... ",
"  ....   ...................... ",
"  ....   ...................... ",
"  ....   ...................... ",
"  ....   ...................... ",
"  ....   ...................... ",
"         ...................... ",
"         ...................... ",
"  ....   ...................... ",
"  ....   ...................... ",
"  ....   ...................... ",
"  ....   ...................... ",
"  ....   ...................... ",
"  ....   ...................... ",
"         ...................... ",
"         ...................... ",
"  ....   ...................... ",
"  ....   ...................... ",
"  ....   ...................... ",
"  ....   ...................... ",
"  ....   ...................... ",
"  ....   ...................... ",
"                                "
};
