/* XPM */
static char *layout_monadtall[] = {
/* columns rows colors chars-per-pixel */
"32 32 2 1 ",
"  c None",
". c white",
/* pixels */
"                                ",
"  .............   ............. ",
"  .............   ............. ",
"  .............   ............. ",
"  .............   ............. ",
"  .............   ............. ",
"  .............   ............. ",
"  .............   ............. ",
"  .............   ............. ",
"  .............   ............. ",
"  .............   ............. ",
"  .............   ............. ",
"  .............   ............. ",
"  .............   ............. ",
"  .............                 ",
"  .............                 ",
"  .............                 ",
"  .............   ............. ",
"  .............   ............. ",
"  .............   ............. ",
"  .............   ............. ",
"  .............   ............. ",
"  .............   ............. ",
"  .............   ............. ",
"  .............   ............. ",
"  .............   ............. ",
"  .............   ............. ",
"  .............   ............. ",
"  .............   ............. ",
"  .............   ............. ",
"  .............   ............. ",
"                                "
};
