/* XPM */
static char *logo_png[] = {
/* columns rows colors chars-per-pixel */
"20 20 161 2 ",
"   c None",
".  c #1E7F92",
"X  c #1E7F98",
"o  c #207491",
"O  c #207A91",
"+  c #2D7E96",
"@  c #27769C",
"#  c #277B99",
"$  c #2876A1",
"%  c #237BA2",
"&  c #2E7BAA",
"*  c #317AA4",
"=  c #307CA8",
"-  c #1D8194",
";  c #1E8898",
":  c #1F9694",
">  c #1E929C",
",  c #25839B",
"<  c #248C9B",
"1  c #2D899A",
"2  c #36849E",
"3  c #338D9E",
"4  c #2B9697",
"5  c #21909A",
"6  c #29969B",
"7  c #2D9A9A",
"8  c #34909C",
"9  c #1BB19F",
"0  c #30A09C",
"q  c #1F9FA7",
"w  c #1F9FA8",
"e  c #2088A2",
"r  c #3583A2",
"t  c #358BA6",
"y  c #3C88A7",
"u  c #3681A9",
"i  c #3B80AA",
"p  c #3D89A9",
"a  c #2395AE",
"s  c #239BAC",
"d  c #289EAE",
"f  c #3498A3",
"g  c #3491AD",
"h  c #3599AB",
"j  c #2985B1",
"k  c #2689B3",
"l  c #288DB3",
"z  c #3288B4",
"x  c #2694B1",
"c  c #2A93B3",
"v  c #3397B6",
"b  c #339BB4",
"n  c #399AB7",
"m  c #3994BA",
"M  c #399AB9",
"N  c #1DA5A7",
"B  c #1CA9A6",
"V  c #1FA6A9",
"C  c #1DB1A1",
"Z  c #21A5A5",
"A  c #20ADA3",
"S  c #29ABA4",
"D  c #22A4A9",
"F  c #29A2AD",
"G  c #23ABA8",
"H  c #2FABAE",
"J  c #36A0A7",
"K  c #3FA0A4",
"L  c #35ADAF",
"P  c #22B4A3",
"I  c #2FB7A7",
"U  c #23BAA2",
"Y  c #2CBDA5",
"T  c #2DB1A9",
"R  c #31BEA7",
"E  c #33B4AC",
"W  c #32BBA9",
"Q  c #3BBCAC",
"!  c #35A2B4",
"~  c #39A5B3",
"^  c #36ADB1",
"/  c #39ACB2",
"(  c #3FBCB0",
")  c #4484A8",
"_  c #438CAC",
"`  c #4094A0",
"'  c #4395A9",
"]  c #4D93AD",
"[  c #4B9AA9",
"{  c #5F99AF",
"}  c #4F9BB6",
"|  c #459BBF",
" . c #5A9FB3",
".. c #639EB9",
"X. c #4CADAD",
"o. c #5CB8AF",
"O. c #46A5BB",
"+. c #43A8B8",
"@. c #4FABBE",
"#. c #59A2B0",
"$. c #5FA9B4",
"%. c #5FA1B9",
"&. c #42B5B4",
"*. c #4CBEB5",
"=. c #4EB7B9",
"-. c #5EB2B0",
";. c #5DB7BB",
":. c #5BBBBD",
">. c #61A5B6",
",. c #68A4B3",
"<. c #62ACB3",
"1. c #6FA8B7",
"2. c #64A1BB",
"3. c #6BA5BD",
"4. c #6BACBC",
"5. c #70A5B8",
"6. c #73AFB9",
"7. c #63B2B6",
"8. c #6AB5BE",
"9. c #6ABDBD",
"0. c #35C1A7",
"q. c #3BC2AB",
"w. c #41C2AD",
"e. c #58C7B7",
"r. c #5AC3BA",
"t. c #5EC9B9",
"y. c #60C1BE",
"u. c #6BC3BE",
"i. c #61CBBA",
"p. c #68CBBF",
"a. c #4499C0",
"s. c #5EABC2",
"d. c #5DB3C1",
"f. c #61A5C4",
"g. c #61ABC4",
"h. c #6DABC3",
"j. c #62B2C5",
"k. c #6CB4C6",
"l. c #64BAC2",
"z. c #6BBBC6",
"x. c #7DB6C7",
"c. c #72B7C9",
"v. c #7EB7C8",
"b. c #76BEC9",
"n. c #6AC4C2",
"m. c #6DCCC2",
"M. c #74C4C7",
"N. c #7DCEC6",
"B. c #7ECFC8",
"V. c #82B1C0",
"C. c #82BCCD",
"Z. c #81CDC5",
"A. c #D8E6E9",
"S. c #D9E8EA",
"D. c #D9EDED",
"F. c #D8EDED",
"G. c #D8EDEE",
"H. c #D8ECEE",
"J. c #FFFDFD",
"K. c #FFFEFD",
"L. c #FFFEFE",
/* pixels */
"              R Y 0.0.Y q.              ",
"          R U Y q.i.i.w.Y U R           ",
"        P W t.p.e.t.i.t.p.i.W P Q       ",
"      I e.m.( C 9 Q Q C C Q m.t.W Q     ",
"    P r.B.E A *.p.N.N.p.*.A E Z.o.A     ",
"  T E m.E T n.r.E E E E r.n.T E u.0 S   ",
"  G y.&.G n.&.B B B B B B &.u.A &.-.:   ",
"/ H n.D =.:.V V D L ^ D V N :.X.Z 9.4 7 ",
"H &.:.D n.L D D M.F.F.M.D D ^ 7.> ;.K 6 ",
"F l.l.F z.F w / F.K.K.S.J q F 8.< 7.7.5 ",
"! l.l.F z.d s ~ F.K.K.S.8 > d 8.< <.<.f ",
"! +.d.s z.! s s b.S.A.6.- - h 8.; $.` 3 ",
"! b z.a @.d.a a a h 3 . - - #.[ < 4.1 3 ",
"  x j.O.x k.O.a x a e X X ' ,.O ' >.,   ",
"  v n c.M v k.s.n n n g  .,.+ 2 1.r t   ",
"    c g.C.n l } 4.x.v.h.] o 2 V.{ #     ",
"      m %.h.| k % y p % % _ 5.{ 2       ",
"      a.j u ..h.f.2.2...3...r @         ",
"          z $ * _ 2...) * $ u           ",
"              u = & & * i               "
};
