/* XPM */
static char *python[] = {
/* columns rows colors chars-per-pixel */
"26 26 86 1 ",
"  c #292D3E",
". c #3B373D",
"X c #453C3D",
"o c #4D433D",
"O c #50443C",
"+ c #61513C",
"@ c #735C3A",
"# c #73603D",
"$ c #7F6639",
"% c #283448",
"& c #283A52",
"* c #293F57",
"= c #284661",
"- c #274C6A",
"; c #284B68",
": c #275678",
"> c #29597A",
", c #736752",
"< c #667079",
"1 c #8A713B",
"2 c #967A3B",
"3 c #997D3B",
"4 c #9A7E3C",
"5 c #A4853B",
"6 c #A3853C",
"7 c #A4863C",
"8 c #AE8D3A",
"9 c #B29038",
"0 c #C09C3A",
"q c #C7A23C",
"w c #C9A43B",
"e c #CEA73B",
"r c #CFA93B",
"t c #D3AC3B",
"y c #DBB23A",
"u c #DCB33A",
"i c #DCB43B",
"p c #DDB43C",
"a c #E8BD3C",
"s c #EDC23B",
"d c #F3C63C",
"f c #F7C93D",
"g c #F9CB3D",
"h c #F9CC3D",
"j c #FCCE3E",
"k c #FFD13F",
"l c #9F8E6A",
"z c #958C78",
"x c #CCA747",
"c c #FFD243",
"v c #FFD245",
"b c #286D93",
"n c #28729B",
"m c #2976A0",
"M c #2879A4",
"N c #287CA8",
"B c #2781B0",
"V c #2884B3",
"C c #62869F",
"Z c #6F899A",
"A c #728999",
"S c #4C89AD",
"D c #2890C2",
"F c #2A96CA",
"G c #2A98CC",
"H c #2A9FD5",
"J c #29A1D8",
"K c #2AABE4",
"L c #2AAEE9",
"P c #2AB2EE",
"I c #2BB8F5",
"U c #2CBBFA",
"Y c #2CBDFB",
"T c #2CBEFC",
"R c #2DC0FF",
"E c #3BC2FF",
"W c #4EC3FE",
"Q c #65C9FF",
"! c #A5DBFF",
"~ c #FFEDCA",
"^ c #FFEFD0",
"/ c #C1E5FF",
"( c #DBEDFC",
") c #FFF5E3",
"_ c #FFF8EA",
"` c #F9FDFF",
/* pixels */
"                          ",
"                          ",
"        *VJLPPLJN         ",
"        LWQRRRRRRG        ",
"       :R(`ERRRRRR-       ",
"       >R!/RRRRRRR>       ",
"       >RRRRRRRRRR>       ",
"    ;MBBBBBBBRRRRR<881    ",
"   mYRRRRRRRRRRRRRzkkk0   ",
"  =URRRRRRRRRRRRRRzkkkj+  ",
"  MRRRRRRRRRRRRRRRlkkkk7  ",
"  FRRRRRRRRRRRRRRHikkkkw  ",
"  JRRRRRRKGGGGGGSxkkkkky  ",
"  HRRRRTCtsssssshkkkkkku  ",
"  DRRRRFakkkkkkkkkkkkkkq  ",
"  nRRRRZkkkkkkkkkkkkkkk3  ",
"  &IRRRAkkkkkkkkkkkkkkd.  ",
"   bIRRAkkkkkkkkkkkkkg2   ",
"    %::,kkkkk99999$@@X    ",
"       #kkkkkkkkkk#       ",
"       #kkkkkkc)~k#       ",
"       Ohkkkkkv_^hO       ",
"        3fkkkkkkg4        ",
"         o5rppe6o         ",
"                          ",
"                          "
};
