/* XPM */
static char *python_white[] = {
/* columns rows colors chars-per-pixel */
"26 26 125 2 ",
"   c gray17",
".  c #2E2F2F",
"X  c #2F2F2F",
"o  c #2B2D32",
"O  c #2A2D33",
"+  c #2D2E30",
"@  c #2C2E31",
"#  c #2D2E31",
"$  c #2E2F30",
"%  c #282C34",
"&  c #292C34",
"*  c #292D35",
"=  c #2D3138",
"-  c gray20",
";  c #33363C",
":  c #36393F",
">  c #383B41",
",  c #414141",
"<  c #414348",
"1  c #484848",
"2  c #4B4D51",
"3  c gray37",
"4  c #5F6061",
"5  c #5F6062",
"6  c #606164",
"7  c #636364",
"8  c #69696A",
"9  c #707174",
"0  c gray46",
"q  c #757678",
"w  c #767779",
"e  c #7A7A7C",
"r  c gray50",
"t  c #808080",
"y  c #818181",
"u  c gray51",
"i  c #838383",
"p  c #828385",
"a  c #848484",
"s  c gray52",
"d  c #868686",
"f  c gray54",
"g  c #8E8E8E",
"h  c #8F8F90",
"j  c gray57",
"k  c gray58",
"l  c #959595",
"z  c #949596",
"x  c #959596",
"c  c gray60",
"v  c #9B9B9B",
"b  c #9D9D9F",
"n  c #9FA0A1",
"m  c gray63",
"M  c #A1A2A3",
"N  c gray64",
"B  c #A3A3A4",
"V  c gray65",
"C  c #A7A7A7",
"Z  c #A7A7A8",
"A  c gray66",
"S  c #AAAAAA",
"D  c gray67",
"F  c #ABABAC",
"G  c gray68",
"H  c #ACADAE",
"J  c #AEAEAE",
"K  c #AFAFAF",
"L  c gray69",
"P  c #B0B1B2",
"I  c #B3B3B4",
"U  c #B4B4B5",
"Y  c #BABABB",
"T  c gray",
"R  c #BFC0C0",
"E  c gray76",
"W  c #C3C3C3",
"Q  c #C3C3C4",
"!  c #C4C4C5",
"~  c #C5C5C6",
"^  c #C8C8C8",
"/  c #C9C9CA",
"(  c #CACACB",
")  c #CCCCCD",
"_  c #CCCDCD",
"`  c #CDCDCD",
"'  c #CECECE",
"]  c #CECFCF",
"[  c #D0D0D0",
"{  c #D1D1D2",
"}  c #D2D2D3",
"|  c LightGray",
" . c #D5D5D5",
".. c #D6D6D7",
"X. c #D8D8D8",
"o. c #D8D8D9",
"O. c gray85",
"+. c #D9D9DA",
"@. c #DADADA",
"#. c #DADADB",
"$. c gray86",
"%. c #DBDBDC",
"&. c #DBDCDC",
"*. c #DDDEDE",
"=. c gray88",
"-. c #E1E1E2",
";. c gray90",
":. c #E6E6E7",
">. c #E7E7E7",
",. c gray91",
"<. c #E9E9E9",
"1. c #EAEAEA",
"2. c gray93",
"3. c #EFEFEF",
"4. c gray94",
"5. c #F1F1F1",
"6. c #F3F3F3",
"7. c #F4F4F4",
"8. c #F8F8F8",
"9. c #F9F9F9",
"0. c gray98",
"q. c #FBFBFB",
"w. c gray99",
"e. c #FDFDFD",
"r. c white",
/* pixels */
"% % % % % % % % % % % % % % % % % % % % % % % % % % ",
"% % % % % % % % % % % % % % % % % % % % % % % % % % ",
"% % % % % % % % 9 I ) O.O.O.) F 2 % % % % % % % % % ",
"% % % % % % % n e.,.,.7.e.e.e.e.3.6 O % % % % % % % ",
"% % % % % % % *.e.  - ! e.e.e.e.e.H O % % % % % % % ",
"% % % % % % % :.e.  X ! e.e.e.e.e.H @ % % % % % % % ",
"% % % % % % % :.e.) ) ,.e.e.e.e.e.A @ % % % % % % % ",
"% % % % % % % h b b b b b *.e.e.e.V 8 ( ( H > % % % ",
"% % % : H  ...O.O.O.O.O.&.5.e.e.e.m i e.e.e.| % % % ",
"% % %  .e.e.e.e.e.e.e.e.e.e.e.e.e.c s e.e.e.e.w % % ",
"% % p e.e.e.e.e.e.e.e.e.e.e.e.e.e.s i e.e.e.e.L % % ",
"% % Y e.e.e.e.e.e.e.e.e.e.e.e.e.{ - L e.e.e.e.( % % ",
"% % { e.e.e.e.e.5.m s i i i i 0 - s q.e.e.e.e.) % % ",
"% % O.e.e.e.e.5.3 1 s f g j l c W e.e.e.e.e.e.( % % ",
"% % ) e.e.e.e.V , ,.e.e.e.e.e.e.e.e.e.e.e.e.e.I % % ",
"% % U e.e.e.e.i l e.e.e.e.e.e.e.e.e.e.e.e.e.e.e % % ",
"% % w e.e.e.e.i H e.e.e.e.e.e.e.e.e.e.e.e.e.) % % % ",
"% % % { e.e.e.r H e.e.e.,.{ { { { { { { ) n = % % % ",
"% % % ; B R Q 7 H e.e.e.*.A A A Z Z l % % % % % % % ",
"% % % % % % % X A e.e.e.e.e.,.T T q.-.% % % % % % % ",
"% % % % % % O X A e.e.e.e.e.) X X 5.-.% % % % % % % ",
"% % % % % % @ X A e.e.e.e.e.) X X 5.O.% % % % % % % ",
"% % % % % % @ X 6 2.e.e.e.e.q.7.7.q.l % % % % % % % ",
"% % % % % % @ X @ < m ! ) ) ) ! Z 7 % % % % % % % % ",
"% % % % % % % % % % % % % % % % % % % % % % % % % % ",
"% % % % % % % % % % % % % % % % % % % % % % % % % % "
};
