/* XPM */
static char *_a35564ee96ec6_3153199215134449429562_png[] = {
/* columns rows colors chars-per-pixel */
"20 20 2 1 ",
"  c None",
". c #303C42",
/* pixels */
"        ....        ",
"        .....       ",
"       ......       ",
"         .  .       ",
"       ......       ",
"       .   ..       ",
"       .. ....      ",
"      .     ..      ",
"      .     ...     ",
"     .       ...    ",
"     .       ...    ",
"     .       ...    ",
"    .        ....   ",
"    .        ....   ",
"   ...       ....   ",
"  .  .       ....   ",
"  .   .     ..   .  ",
"  .    ......    .  ",
"  ...  ......  .    ",
"     ...     ..     "
};
