/* XPM */
static char *w[] = {
/* columns rows colors chars-per-pixel */
"20 20 82 1 ",
"  c #2F3E45",
". c #303E45",
"X c #2F454B",
"o c #2F494E",
"O c #314047",
"+ c #32444B",
"@ c #2F4E52",
"# c #384750",
"$ c #364A51",
"% c #3A4C55",
"& c #3D4E58",
"* c #2F5357",
"= c #2E5659",
"- c #2E5B5D",
"; c #31565A",
": c #3E515A",
"> c #2D5F60",
", c #2D6464",
"< c #2C6A69",
"1 c #2B7370",
"2 c #2B7875",
"3 c #2A7E7A",
"4 c #41545D",
"5 c #415660",
"6 c #455A64",
"7 c #495D67",
"8 c #4A5F69",
"9 c #4D616B",
"0 c #51646E",
"q c #536770",
"w c #556871",
"e c #586B74",
"r c #5E7078",
"t c #62737B",
"y c #6E797F",
"u c #2A827C",
"i c #667780",
"p c #6D7D85",
"a c #727F85",
"s c #298680",
"d c #298A83",
"f c #27968D",
"g c #28928A",
"h c #76858C",
"j c #78878E",
"k c #7D8C93",
"l c #838F95",
"z c #829097",
"x c #86939A",
"c c #89969D",
"v c #8B989F",
"b c #8E9BA1",
"n c #939DA2",
"m c #94A0A6",
"M c #9BA6AB",
"N c #9CA8AD",
"B c #A3ACB0",
"V c #A6B0B5",
"C c #A9B2B6",
"Z c #ADB6BA",
"A c #B2BBBF",
"S c #B9C1C4",
"D c #BEC4C7",
"F c #BFC6CA",
"G c #C1C8CB",
"H c #C8CDCF",
"J c #CAD0D2",
"K c #CBD1D4",
"L c #D1D7D9",
"P c #D6DADD",
"I c #DBDEE0",
"U c #DEE1E3",
"Y c #E0E3E5",
"T c #E4E6E8",
"R c #E7EAEB",
"E c #EBEDEE",
"W c #EFF1F2",
"Q c #F0F1F2",
"! c #F6F7F8",
"~ c #F8F9F9",
"^ c #FBFCFC",
"/ c #FFFFFF",
/* pixels */
"///////ZhG!Lxb//////",
"///////JnC~DnA//////",
"///////InynalH//////",
"////^EYAa4$&tBIR~///",
"//^WPVzr66666wkNKE~/",
"//UMr09766666680ecL/",
"/TMw4&%%$+$%&:5559xL",
"/At&#+OO...OO+%465eb",
"/v4%*oO.o=X.OX$&568e",
"/l$=u<o.,g-O+=>+4667",
"/k+@2s=X<g2@@,-O:666",
"/k+X>f,=<3g-=,*O:666",
"/k+ @d2<,>f1<,XO:666",
"/k$.X1su,o3s2-OO:666",
"/x&OO=ds=+>gu*O+4666",
"/m8%O+uu=OXuu*O&6778",
"/Fp:&+;*X.O;;%:6bAbq",
"/ECt4:&%&&&%&456ATSp",
"//RZjte087666778mFSC",
"///~YCziw966790qtkAQ"
};
