/* XPM */
static char *webstorm[] = {
/* columns rows colors chars-per-pixel */
"20 20 122 2 ",
"   c #3D3A37",
".  c #33363E",
"X  c #36383C",
"o  c #3A3A3A",
"O  c #3E3B38",
"+  c #3F3C39",
"@  c #38393D",
"#  c #3F3A3C",
"$  c #3C3C3C",
"%  c #403A34",
"&  c #423538",
"*  c #403A3B",
"=  c #403A3C",
"-  c #43403D",
";  c #3E3F43",
":  c #404040",
">  c #474142",
",  c #414145",
"<  c #454545",
"1  c #484848",
"2  c #4E4849",
"3  c #4F4C49",
"4  c #4C4C4C",
"5  c #504447",
"6  c #4C4D51",
"7  c #515151",
"8  c #565656",
"9  c #585254",
"0  c #5A5A5A",
"q  c #5D5D5D",
"w  c #635D5E",
"e  c #5A5C60",
"r  c #696663",
"t  c #6A6465",
"y  c #65676B",
"u  c #6F6F6F",
"i  c #716B6D",
"p  c #746E6F",
"a  c #6E6F73",
"s  c #717171",
"d  c #757575",
"f  c #7B7576",
"g  c #797979",
"h  c #7D7D7D",
"j  c #977F3A",
"k  c #32886C",
"l  c #238771",
"z  c #248872",
"x  c #278B75",
"c  c #288A75",
"v  c #298D77",
"b  c #278678",
"n  c #278E79",
"m  c #2A897B",
"M  c #2A8E78",
"N  c #378D71",
"B  c #9B803A",
"V  c #9B833D",
"C  c #9D833C",
"Z  c #C9A53D",
"A  c #F7C73B",
"S  c #F7C73C",
"D  c #FBC73A",
"F  c #F7C83F",
"G  c #FFCB3A",
"H  c #FAC93C",
"J  c #FCCB3C",
"K  c #8D8444",
"L  c #DDCA4A",
"P  c #E1CE4A",
"I  c #F7CA47",
"U  c #F8D15F",
"Y  c #2A5D8E",
"T  c #2E678F",
"R  c #2E6191",
"E  c #2F6890",
"W  c #306393",
"Q  c #306294",
"!  c #2874BD",
"~  c #1FB695",
"^  c #15D3B7",
"/  c #13DDB1",
"(  c #14DDB1",
")  c #18DDB2",
"_  c #14D7BB",
"`  c #2EDAA3",
"'  c #2EDFA6",
"]  c #21DFB5",
"[  c #0EE2B7",
"{  c #12E3B3",
"}  c #13E2B4",
"|  c #3EE3BF",
" . c #1F85E7",
".. c #1F87E9",
"X. c #1F86ED",
"o. c #1F88EC",
"O. c #1F90E1",
"+. c #1E93E5",
"@. c #2086E7",
"#. c #2488E7",
"$. c #2084E8",
"%. c #2C8DE8",
"&. c #489BEB",
"*. c #3FE3C0",
"=. c #848484",
"-. c #888888",
";. c #939393",
":. c #9F9F9F",
">. c #A2A2A2",
",. c #A5A5A5",
"<. c #ACACAC",
"1. c #B7B7B7",
"2. c #B8B8B8",
"3. c #BCBCBC",
"4. c #C2C2C2",
"5. c #C7C7C7",
"6. c #C9C9C9",
"7. c #CCCCCC",
"8. c #D0D0D0",
"9. c #D7D7D7",
"0. c #E2E2E2",
"q. c #E4E4E4",
/* pixels */
"| ] / ( ( ( ( ( / ` L D S S S S S A I U ",
"] ) / } } } } } [ ' P G J J J J J H F I ",
"/ / ~ c z v x x n k K B j j j V V Z H A ",
"( } c 5 t > w 9 2 t , 6 y a e ; . V J S ",
"( } z p 8.8 2.;.u 8.8 -.7.9.,.4 X V J S ",
"( } l f 0.0 5.:.d 0.0 2.<.s =.1 @ V J S ",
"( } l f q.0 6.:.d q.0 :.8.4.:.1 X V J S ",
"( } l f q.q 6.>.g q.0 h >.1.6.7 X V J S ",
"( { l i 9.;.9.3.:.7.8 g -.:.7.7 X C G D ",
"^ _ b 9 >.8.5.7.6.;.1 =.6.7.;.1 @ K P L ",
"O.+.T - 4 7 7 7 7 1 : 1 7 7 1 : # N ' ` ",
"$.X.Q + $ $ $ $ $ $ $ $ $ $ $ $ = n [ / ",
"@.o.W O o o o o o o $ : $ $ $ $ = M } ( ",
"@.o.R 3 s g g g g u < $ $ $ $ $ = M } ( ",
"@.o.Y r 8.q.q.q.0.4.7 $ : : : : = M } ( ",
"@.o.R > 7 8 8 8 8 7 : : : : : : = M } ( ",
"@.o.W %             * = * = = = & v } ( ",
" ...! W W W W W W E m v M M M M v ~ / / ",
"%.#...o.o.o.o.o.X.+._ { } } } } } / ) ] ",
"&.%. .@.@.@.@.@.$.O.^ ( ( ( ( ( ( / ] *."
};
